#!OML:ASF F:\VICON\USERDATA\INSTALL\rory3\rory3.ASF
:FULLY-SPECIFIED
:DEGREES
775
root 0.796453 17.908 0.421468 12.9968 -3.97183 5.71104
lowerback 12.1201 1.66677 6.22927
upperback 1.70646 3.23684 4.28874
thorax -4.90985 1.50575 0.481365
lowerneck -23.7299 -13.5302 -10.366
upperneck 8.12105 -17.4892 15.416
head 8.69021 -7.26913 4.08615
rclavicle 1.59028e-015 5.08889e-014
rhumerus 44.4958 6.59954 6.3852
rradius 60.7608
rwrist 55.6083
rhand -73.3371 20.3012
rfingers 7.12502
rthumb -44.7279 -3.30478
lclavicle 1.59028e-015 5.08889e-014
lhumerus -38.0004 2.37203 73.6999
lradius 43.1812
lwrist -5.8924
lhand -11.7045 20.1462
lfingers 7.12502
lthumb 14.3418 49.6308
rfemur -29.1927 0.104737 7.05188
rtibia 32.8809
rfoot -14.4929 -3.89939
rtoes 11.659
lfemur -13.7807 3.16749 -19.8246
ltibia 11.595
lfoot -5.35053 9.22846
ltoes -24.8805
776
root 0.810986 17.9127 0.420057 13.0736 -3.53822 5.66742
lowerback 12.1008 1.59745 6.12912
upperback 1.6886 3.12952 4.22283
thorax -4.92318 1.45446 0.484726
lowerneck -23.7634 -13.5538 -10.4683
upperneck 8.24909 -17.487 15.3139
head 8.73476 -7.27426 4.06523
rclavicle -2.46493e-014 -9.54166e-015
rhumerus 43.1097 5.34081 5.0475
rradius 59.9886
rwrist 54.8748
rhand -73.1038 13.381
rfingers 7.12502
rthumb -44.5106 -10.3088
lclavicle -2.46493e-014 -9.54166e-015
lhumerus -38.2623 2.49612 73.492
lradius 43.544
lwrist -6.01379
lhand -11.9311 20.0241
lfingers 7.12502
lthumb 14.1234 49.5241
rfemur -29.0354 -0.0714795 7.08007
rtibia 32.7396
rfoot -14.6278 -4.06322
rtoes 12.1636
lfemur -13.8658 3.00558 -19.7916
ltibia 11.4437
lfoot -5.21821 8.95976
ltoes -25.1036
777
root 0.827098 17.9182 0.420109 13.1415 -3.10781 5.71883
lowerback 12.0985 1.52659 6.00141
upperback 1.64344 3.01863 4.12747
thorax -4.97446 1.40047 0.47221
lowerneck -23.7183 -13.5876 -10.5741
upperneck 8.28919 -17.4873 15.1889
head 8.73458 -7.29083 4.04062
rclavicle 1.11319e-014 -2.22639e-014
rhumerus 42.2354 3.76089 3.15563
rradius 58.6648
rwrist 54.7339
rhand -73.1351 6.3738
rfingers 7.12502
rthumb -44.5397 -17.3048
lclavicle 1.11319e-014 -2.22639e-014
lhumerus -38.5789 2.62644 73.2867
lradius 43.8868
lwrist -6.17014
lhand -12.1836 20.1451
lfingers 7.12502
lthumb 13.8801 49.6619
rfemur -28.8744 -0.279158 6.99505
rtibia 32.5974
rfoot -14.7513 -4.23203
rtoes 12.4963
lfemur -13.8767 2.84859 -19.8633
ltibia 11.157
lfoot -5.02436 8.63664
ltoes -25.1545
778
root 0.846915 17.9227 0.422126 13.1039 -2.60329 5.84024
lowerback 12.1312 1.40831 5.92937
upperback 1.62846 2.85109 3.99543
thorax -5.01024 1.31808 0.398607
lowerneck -23.5158 -13.5879 -10.6127
upperneck 8.23084 -17.4658 15.077
head 8.66918 -7.30602 4.02207
rclavicle -3.4191e-014 -5.40694e-014
rhumerus 41.4909 2.08193 1.58377
rradius 57.6303
rwrist 54.1931
rhand -73.2102 0.389455
rfingers 7.12502
rthumb -44.6097 -23.2622
lclavicle -3.4191e-014 -5.40694e-014
lhumerus -38.9 2.70202 73.0433
lradius 44.229
lwrist -6.13296
lhand -12.3893 20.1441
lfingers 7.12502
lthumb 13.6819 49.6744
rfemur -28.5704 -0.545251 6.84907
rtibia 32.4368
rfoot -14.8711 -4.39997
rtoes 12.5816
lfemur -13.7911 2.74209 -20.0047
ltibia 10.8778
lfoot -4.8461 8.16363
ltoes -25.0071
779
root 0.86955 17.9273 0.42707 12.9457 -2.07979 6.05672
lowerback 12.2901 1.26113 5.8324
upperback 1.60933 2.65235 3.8436
thorax -5.12215 1.21877 0.319997
lowerneck -23.2978 -13.5594 -10.589
upperneck 8.26263 -17.4132 14.832
head 8.60681 -7.31409 3.95696
rclavicle -7.95139e-016 -6.36111e-015
rhumerus 40.7947 0.376992 0.32179
rradius 56.8586
rwrist 53.3562
rhand -73.1569 -1.10489
rfingers 7.12502
rthumb -44.5601 -24.7757
lclavicle -7.95139e-016 -6.36111e-015
lhumerus -39.2432 2.81522 72.8208
lradius 44.4233
lwrist -6.10601
lhand -12.7796 20.1127
lfingers 7.12502
lthumb 13.3057 49.6679
rfemur -28.107 -0.855031 6.59637
rtibia 32.2536
rfoot -14.9983 -4.51846
rtoes 12.6751
lfemur -13.5793 2.44014 -20.2243
ltibia 10.6972
lfoot -4.82458 7.85312
ltoes -24.7799
780
root 0.890467 17.9309 0.430472 12.9135 -1.66766 5.98517
lowerback 12.4243 1.19642 5.95807
upperback 1.5403 2.59669 3.76537
thorax -5.2624 1.18417 0.172643
lowerneck -23.21 -13.586 -10.6911
upperneck 8.33447 -17.4186 14.7313
head 8.61422 -7.331 3.94027
rclavicle -2.46493e-014 -6.36111e-014
rhumerus 40.1848 -1.50801 -1.07343
rradius 56.0201
rwrist 52.8618
rhand -73.0333 -2.21538
rfingers 7.12502
rthumb -44.4449 -25.9303
lclavicle -2.46493e-014 -6.36111e-014
lhumerus -39.5038 2.84305 72.6531
lradius 44.4917
lwrist -6.10677
lhand -13.1331 20.1862
lfingers 7.12502
lthumb 12.9649 49.7633
rfemur -27.8186 -1.08846 6.6606
rtibia 32.0572
rfoot -15.0557 -4.64861
rtoes 12.7836
lfemur -13.5255 2.23605 -20.1474
ltibia 10.5871
lfoot -4.81718 7.62253
ltoes -24.8239
